<svg width="16" height="16" viewBox="0 0 16 16" fill="none" xmlns="http://www.w3.org/2000/svg">
<path d="M13.8667 15.4667H9.06671C8.92526 15.4667 8.7896 15.4105 8.68958 15.3105C8.58956 15.2105 8.53337 15.0748 8.53337 14.9334V12.2667H7.46671V14.9334C7.46671 15.0748 7.41052 15.2105 7.3105 15.3105C7.21048 15.4105 7.07482 15.4667 6.93337 15.4667H2.13337C1.99193 15.4667 1.85627 15.4105 1.75625 15.3105C1.65623 15.2105 1.60004 15.0748 1.60004 14.9334V8.00003H0.533374C0.424346 8.00003 0.317934 7.96663 0.228473 7.90431C0.139013 7.84198 0.0708021 7.75374 0.0330296 7.65146C-0.00474293 7.54919 -0.0102624 7.43779 0.0172149 7.33228C0.0446922 7.22677 0.103846 7.13222 0.186708 7.06136L7.65338 0.66136C7.74998 0.578731 7.87292 0.533325 8.00004 0.533325C8.12716 0.533325 8.2501 0.578731 8.34671 0.66136L15.8134 7.06136C15.8962 7.13222 15.9554 7.22677 15.9829 7.33228C16.0103 7.43779 16.0048 7.54919 15.9671 7.65146C15.9293 7.75374 15.8611 7.84198 15.7716 7.90431C15.6821 7.96663 15.5757 8.00003 15.4667 8.00003H14.4V14.9334C14.4 15.0748 14.3439 15.2105 14.2438 15.3105C14.1438 15.4105 14.0082 15.4667 13.8667 15.4667ZM9.60004 14.4H13.3334V7.46669C13.3334 7.32524 13.3896 7.18959 13.4896 7.08957C13.5896 6.98955 13.7253 6.93336 13.8667 6.93336H14.0267L8.00004 1.77069L1.97337 6.93336H2.13337C2.27482 6.93336 2.41048 6.98955 2.5105 7.08957C2.61052 7.18959 2.66671 7.32524 2.66671 7.46669V14.4H6.40004V11.7334C6.40004 11.5919 6.45623 11.4563 6.55625 11.3562C6.65627 11.2562 6.79193 11.2 6.93337 11.2H9.06671C9.20816 11.2 9.34381 11.2562 9.44383 11.3562C9.54385 11.4563 9.60004 11.5919 9.60004 11.7334V14.4Z" fill="#338AF3"/>
</svg>
