<svg width="48" height="48" viewBox="0 0 48 48" fill="none" xmlns="http://www.w3.org/2000/svg">
<path d="M24 47.9997C37.2548 47.9997 48 37.2546 48 23.9998C48 10.7451 37.2548 0 24 0C10.7452 0 0 10.7451 0 23.9998C0 37.2546 10.7452 47.9997 24 47.9997Z" fill="#F1F1F2"/>
<path d="M5.24396 30.9565C8.06982 38.5724 15.4007 43.9999 24 43.9999C32.5993 43.9999 39.9302 38.5724 42.756 30.9565L24 29.2174L5.24396 30.9565Z" fill="#FFDA44"/>
<path d="M24 3.99997C15.4007 3.99997 8.06982 9.42744 5.24396 17.0434L24 18.7825L42.756 17.0433C39.9302 9.42744 32.5993 3.99997 24 3.99997Z" fill="black"/>
<path d="M5.24399 17.0437C4.44008 19.2104 4 21.5538 4 24.0002C4 26.4466 4.44008 28.79 5.24399 30.9566H42.7561C43.5601 28.79 44.0001 26.4466 44.0001 24.0002C44.0001 21.5538 43.5601 19.2104 42.7561 17.0437H5.24399Z" fill="#D80027"/>
</svg>
