<svg width="48" height="48" viewBox="0 0 48 48" fill="none" xmlns="http://www.w3.org/2000/svg">
<path d="M24 0C37.2548 0 47.9999 10.7452 47.9999 24C47.9999 37.2548 37.2548 48 24 48C10.7452 48 0 37.2548 0 24C0 10.7452 10.7452 0 24 0Z" fill="#F1F1F2"/>
<path d="M4 23.9997C4 32.5989 9.42749 39.9297 17.0433 42.7556L18.7826 23.9996L17.0433 5.24365C9.42749 8.06959 4 15.4004 4 23.9997Z" fill="#6DA544"/>
<path d="M43.9999 24C43.9999 12.9544 35.0456 4 24 4C21.5536 4 19.2101 4.44008 17.0433 5.24398V42.756C19.2101 43.56 21.5536 44 24 44C35.0456 44 43.9999 35.0456 43.9999 24Z" fill="#D80027"/>
<path d="M17.0435 30.9564C20.8855 30.9564 24 27.8419 24 23.9999C24 20.158 20.8855 17.0435 17.0435 17.0435C13.2016 17.0435 10.087 20.158 10.087 23.9999C10.087 27.8419 13.2016 30.9564 17.0435 30.9564Z" fill="#FFDA44"/>
<path d="M13.1305 20.5215V24.8693C13.1305 27.0304 14.8824 28.7823 17.0435 28.7823C19.2047 28.7823 20.9566 27.0305 20.9566 24.8693V20.5215H13.1305Z" fill="#D80027"/>
<path d="M17.0436 26.1738C16.3244 26.1738 15.7392 25.5887 15.7392 24.8694V23.1304H18.3479V24.8695C18.3479 25.5887 17.7627 26.1738 17.0436 26.1738Z" fill="#F0F0F0"/>
</svg>
