<svg width="71" height="20" viewBox="0 0 71 20" fill="none" xmlns="http://www.w3.org/2000/svg">
<rect width="70" height="20" rx="6" fill="#F9F9FA"/>
<path d="M15.3459 12.1167C15.3459 12.729 15.1248 13.2114 14.6826 13.564C14.2435 13.9165 13.6312 14.0928 12.8457 14.0928C12.1221 14.0928 11.4819 13.9567 10.9253 13.6846V12.3486C11.383 12.5527 11.7695 12.6965 12.085 12.78C12.4035 12.8635 12.6942 12.9053 12.957 12.9053C13.2725 12.9053 13.5137 12.845 13.6807 12.7244C13.8507 12.6038 13.9358 12.4244 13.9358 12.1863C13.9358 12.0533 13.8987 11.9358 13.8245 11.8337C13.7502 11.7286 13.6405 11.6281 13.4951 11.5322C13.3529 11.4364 13.0606 11.2833 12.6184 11.073C12.204 10.8782 11.8932 10.6911 11.686 10.5117C11.4788 10.3324 11.3134 10.1236 11.1897 9.8855C11.066 9.64738 11.0042 9.36906 11.0042 9.05054C11.0042 8.4506 11.2067 7.979 11.6118 7.63574C12.02 7.29248 12.5828 7.12085 13.3003 7.12085C13.6528 7.12085 13.9884 7.1626 14.3069 7.24609C14.6285 7.32959 14.964 7.4471 15.3135 7.59863L14.8496 8.71655C14.4878 8.56812 14.1878 8.46452 13.9497 8.40576C13.7147 8.34701 13.4827 8.31763 13.2539 8.31763C12.9818 8.31763 12.773 8.38102 12.6277 8.50781C12.4823 8.6346 12.4097 8.80005 12.4097 9.00415C12.4097 9.13094 12.439 9.24227 12.4978 9.33813C12.5566 9.43091 12.6493 9.52214 12.7761 9.61182C12.906 9.6984 13.2106 9.85612 13.6899 10.085C14.3239 10.388 14.7584 10.6926 14.9934 10.9988C15.2284 11.3018 15.3459 11.6745 15.3459 12.1167ZM22.1323 14H20.699V11.073H18.0132V14H16.5752V7.21826H18.0132V9.87622H20.699V7.21826H22.1323V14ZM30.0042 10.5999C30.0042 11.7224 29.7258 12.5852 29.1692 13.1882C28.6125 13.7913 27.8147 14.0928 26.7756 14.0928C25.7366 14.0928 24.9387 13.7913 24.3821 13.1882C23.8254 12.5852 23.5471 11.7193 23.5471 10.5906C23.5471 9.46183 23.8254 8.60059 24.3821 8.00684C24.9418 7.40999 25.7428 7.11157 26.7849 7.11157C27.8271 7.11157 28.6234 7.41154 29.1738 8.01147C29.7274 8.61141 30.0042 9.4742 30.0042 10.5999ZM25.0547 10.5999C25.0547 11.3575 25.1985 11.9281 25.4861 12.3115C25.7737 12.695 26.2035 12.8867 26.7756 12.8867C27.9229 12.8867 28.4966 12.1244 28.4966 10.5999C28.4966 9.07218 27.926 8.30835 26.7849 8.30835C26.2128 8.30835 25.7814 8.50163 25.4907 8.88818C25.2 9.27165 25.0547 9.8422 25.0547 10.5999ZM38.0151 14H36.3777L35.4592 10.4375C35.4252 10.3107 35.3665 10.0494 35.283 9.65356C35.2026 9.25464 35.1562 8.98714 35.1438 8.85107C35.1252 9.01807 35.0789 9.28711 35.0046 9.6582C34.9304 10.0262 34.8732 10.2891 34.833 10.4468L33.9192 14H32.2864L30.5562 7.21826H31.9709L32.8384 10.9199C32.9899 11.6034 33.0997 12.1956 33.1677 12.6965C33.1863 12.5203 33.228 12.2481 33.293 11.8801C33.361 11.509 33.4244 11.2214 33.4832 11.0173L34.4712 7.21826H35.8303L36.8184 11.0173C36.8617 11.1874 36.9158 11.4472 36.9807 11.7966C37.0457 12.1461 37.0951 12.446 37.1292 12.6965C37.1601 12.4553 37.2096 12.1554 37.2776 11.7966C37.3456 11.4348 37.4075 11.1426 37.4631 10.9199L38.3259 7.21826H39.7407L38.0151 14ZM47.2136 14L46.7219 12.3857H44.2495L43.7578 14H42.2085L44.6021 7.19043H46.3601L48.7629 14H47.2136ZM46.3787 11.1797C45.9241 9.71696 45.6674 8.88973 45.6086 8.698C45.553 8.50627 45.5128 8.35474 45.488 8.24341C45.386 8.63924 45.0938 9.618 44.6113 11.1797H46.3787ZM49.6211 14V7.21826H51.0591V12.8125H53.8098V14H49.6211ZM54.9927 14V7.21826H56.4307V12.8125H59.1814V14H54.9927Z" fill="#76787B"/>
</svg>
