<svg width="240" height="152" viewBox="0 0 240 152" fill="none" xmlns="http://www.w3.org/2000/svg">
<g clip-path="url(#clip0)">
<path d="M194.062 89.622C191.857 90.4354 187.983 91.1042 183.5 91.6419C171.309 93.106 154.604 93.6257 154.604 93.6257C154.604 93.6257 68.7268 100.754 4.36362 74.2422C4.36362 74.2422 -4.99817 69.3302 3.68637 62.7191C5.02367 61.7313 6.44537 60.8633 7.93496 60.1253L8.04106 60.0191C9.02889 59.1054 10.0964 58.2819 11.2309 57.5586C14.5652 55.4009 20.1954 52.8432 27.0491 54.0023L196.094 81.3661C196.094 81.3661 202.268 86.5876 194.062 89.622Z" fill="#76787B"/>
<path d="M160.381 77.2199L195.769 52.0907L211.366 54.7907L196.094 81.366C196.094 81.366 160.787 81.6484 160.381 77.2199Z" fill="#76787B"/>
<path d="M71.2867 61.9532L141.777 42.1675L153.139 44.5444L121.297 58.8804L111.346 70.0238L71.2867 61.9532Z" fill="#76787B"/>
<path d="M183.5 91.642C171.309 93.1061 154.604 93.6258 154.604 93.6258C154.604 93.6258 68.7268 100.754 4.36362 74.2422C4.36362 74.2422 -4.99817 69.3302 3.68637 62.7192L3.71572 62.8412C3.71572 62.8412 17.6038 72.2358 83.9603 80.0783L183.5 91.642Z" fill="#D0D0CE"/>
<path d="M172.169 91.0996L203.684 103.978L211.601 103.099L192.751 88.9193C192.751 88.9193 169.95 84.0502 172.169 91.0996Z" fill="#76787B"/>
<path d="M15.1432 64.2172C13.6398 64.2421 10.1948 61.7183 8.05247 60.0192C9.0403 59.1055 10.1078 58.282 11.2423 57.5587C12.9693 58.885 16.0417 61.0314 17.7506 60.9478C20.2181 60.8462 17.4075 64.1766 15.1432 64.2172Z" fill="white"/>
<path d="M158.315 135.617L138.081 136.677L81.1926 98.2847L70.6321 91.1562L65.5031 87.6926C75.1267 79.5587 114.391 90.7767 114.391 90.7767C115.143 91.4116 115.382 92.4667 115.348 93.6326C115.283 95.8151 114.258 98.3773 113.863 99.2992C113.768 99.5251 113.709 99.6449 113.709 99.6449L158.315 135.617Z" fill="#76787B"/>
<path d="M91.6787 115.711L88.1683 117.935L90.2948 114.064C89.6927 113.584 88.9476 113.317 88.1773 113.307H88.1209C87.8774 113.312 87.634 113.294 87.394 113.253L86.2065 114.008L86.7144 113.082C85.8732 112.786 85.1465 112.233 84.6376 111.5L82.5133 112.856L83.8542 110.411C82.6126 108.917 80.9375 108.002 79.0932 108.002C76.8831 108.002 74.9146 109.317 73.6436 111.369C73.2667 111.983 72.7339 112.487 72.0995 112.828C71.465 113.169 70.7515 113.336 70.0316 113.312H69.9142C67.4739 113.312 65.4963 116.08 65.4963 119.496C65.4963 122.912 67.4739 125.68 69.9142 125.68C70.4504 125.678 70.9782 125.546 71.4516 125.294C72.2824 124.89 73.1909 124.672 74.1142 124.654C75.0375 124.636 75.9537 124.819 76.7996 125.19C77.5149 125.509 78.2895 125.674 79.0728 125.674C79.8562 125.674 80.6308 125.509 81.3461 125.19C82.185 124.826 83.0922 124.647 84.0063 124.664C84.9205 124.682 85.8201 124.896 86.6445 125.291C87.115 125.537 87.6375 125.667 88.1683 125.669C90.6086 125.669 92.5862 122.901 92.5862 119.485C92.6037 118.171 92.2917 116.873 91.6787 115.711Z" fill="#F2F2F2"/>
<path opacity="0.03" d="M85.0755 124.761C83.8007 124.519 82.4831 124.662 81.2897 125.172C80.575 125.492 79.8007 125.658 79.0175 125.658C78.2344 125.658 77.4601 125.492 76.7454 125.172C75.8998 124.8 74.9834 124.617 74.06 124.634C73.1365 124.652 72.228 124.871 71.3974 125.276C70.9229 125.527 70.3946 125.66 69.8578 125.662C67.6906 125.662 65.8869 123.475 65.5121 120.592C65.9458 120.277 66.3138 119.88 66.5957 119.424C67.8667 117.374 69.8352 116.06 72.0453 116.06C74.2554 116.06 76.2036 117.347 77.4723 119.381C77.8509 119.994 78.3814 120.498 79.0123 120.845C79.6432 121.193 80.3531 121.371 81.073 121.362H81.1294C82.8541 121.358 84.3486 122.741 85.0755 124.761Z" fill="black"/>
<path d="M190.782 112.774L187.272 114.997L189.398 111.127C188.796 110.646 188.051 110.38 187.281 110.37H187.224C186.981 110.375 186.738 110.357 186.497 110.316L185.31 111.071L185.818 110.144C184.977 109.849 184.25 109.295 183.741 108.563L181.617 109.918L182.958 107.474C181.716 105.98 180.041 105.065 178.197 105.065C175.987 105.065 174.018 106.38 172.747 108.432C172.37 109.046 171.837 109.549 171.203 109.891C170.569 110.232 169.855 110.399 169.135 110.375H169.018C166.577 110.375 164.6 113.142 164.6 116.559C164.6 119.975 166.577 122.743 169.018 122.743C169.554 122.741 170.082 122.608 170.555 122.356C171.386 121.953 172.294 121.735 173.218 121.717C174.141 121.699 175.057 121.882 175.903 122.252C176.618 122.572 177.393 122.737 178.176 122.737C178.96 122.737 179.734 122.572 180.45 122.252C181.289 121.889 182.196 121.709 183.11 121.727C184.024 121.744 184.924 121.958 185.748 122.354C186.219 122.6 186.741 122.729 187.272 122.731C189.712 122.731 191.69 119.964 191.69 116.547C191.707 115.234 191.395 113.936 190.782 112.774Z" fill="#F2F2F2"/>
<path opacity="0.03" d="M184.179 121.823C182.904 121.582 181.587 121.725 180.393 122.235C179.679 122.555 178.904 122.72 178.121 122.72C177.338 122.72 176.564 122.555 175.849 122.235C175.003 121.863 174.087 121.679 173.164 121.697C172.24 121.715 171.332 121.934 170.501 122.338C170.027 122.59 169.498 122.722 168.962 122.725C166.794 122.725 164.991 120.538 164.616 117.655C165.049 117.34 165.418 116.943 165.699 116.487C166.97 114.437 168.939 113.122 171.149 113.122C173.359 113.122 175.307 114.41 176.576 116.444C176.956 117.058 177.488 117.564 178.121 117.911C178.754 118.258 179.466 118.435 180.188 118.425H180.244C181.958 118.421 183.452 119.803 184.179 121.823Z" fill="black"/>
<path d="M190.782 38.6653L187.272 40.8886L189.398 37.0182C188.796 36.5373 188.051 36.271 187.281 36.2613H187.224C186.981 36.2661 186.738 36.2479 186.497 36.2071L185.31 36.9617L185.818 36.0353C184.977 35.7398 184.25 35.1864 183.741 34.4538L181.617 35.8094L182.958 33.3647C181.716 31.8712 180.041 30.9562 178.197 30.9562C175.987 30.9562 174.018 32.2712 172.747 34.3227C172.37 34.9371 171.837 35.4405 171.203 35.7818C170.569 36.1231 169.855 36.2901 169.135 36.2658H169.018C166.577 36.2658 164.6 39.0336 164.6 42.4498C164.6 45.8661 166.577 48.6339 169.018 48.6339C169.554 48.6321 170.082 48.4995 170.555 48.2475C171.386 47.8441 172.294 47.6259 173.218 47.6079C174.141 47.59 175.057 47.7727 175.903 48.1436C176.618 48.4648 177.392 48.6319 178.175 48.6339C178.959 48.6358 179.734 48.4726 180.45 48.1549C181.289 47.791 182.196 47.6117 183.11 47.6293C184.024 47.6468 184.924 47.8607 185.748 48.2565C186.219 48.5023 186.741 48.6317 187.272 48.6339C189.712 48.6339 191.69 45.8661 191.69 42.4498C191.709 41.1321 191.397 39.8307 190.782 38.6653Z" fill="#F2F2F2"/>
<path opacity="0.03" d="M184.179 47.7144C182.904 47.473 181.587 47.6162 180.393 48.1256C179.679 48.4459 178.904 48.6115 178.121 48.6115C177.338 48.6115 176.564 48.4459 175.849 48.1256C175.003 47.7538 174.087 47.5704 173.164 47.5884C172.24 47.6063 171.332 47.8251 170.501 48.2296C170.027 48.4809 169.498 48.6134 168.962 48.6159C166.794 48.6159 164.991 46.4288 164.616 43.5458C165.049 43.2306 165.418 42.8339 165.699 42.3777C166.97 40.3284 168.939 39.0134 171.149 39.0134C173.359 39.0134 175.307 40.3013 176.576 42.3348C176.956 42.9493 177.488 43.4549 178.121 43.8022C178.754 44.1495 179.466 44.3266 180.188 44.3163H180.244C181.958 44.3117 183.452 45.6945 184.179 47.7144Z" fill="black"/>
<path d="M45.8471 30.6693L44.0976 31.7786L45.1586 29.8491C44.8587 29.6079 44.4867 29.4742 44.1021 29.4695H44.075C43.9533 29.4708 43.8317 29.4617 43.7115 29.4424L43.1201 29.8175L43.3729 29.3656C42.9532 29.2184 42.5906 28.9425 42.3367 28.577L41.278 29.2549L41.9552 28.037C41.6736 27.6725 41.3143 27.3755 40.9034 27.1675C40.4926 26.9596 40.0406 26.846 39.5803 26.835C38.4787 26.835 37.4967 27.4903 36.8714 28.5138C36.6831 28.821 36.4167 29.0727 36.0994 29.243C35.7821 29.4133 35.4252 29.4962 35.0654 29.4831H35.0067C33.7899 29.4831 32.8034 30.8658 32.8034 32.5694C32.8034 34.273 33.7899 35.6535 35.0067 35.6535C35.2743 35.6527 35.5377 35.5868 35.7742 35.4615C36.1886 35.2596 36.6419 35.1504 37.1027 35.1414C37.5634 35.1324 38.0207 35.2239 38.4426 35.4095C38.7979 35.5676 39.1824 35.6493 39.5713 35.6493C39.9602 35.6493 40.3447 35.5676 40.7 35.4095C41.1186 35.2278 41.5713 35.1384 42.0275 35.1473C42.4836 35.1563 42.9325 35.2634 43.3436 35.4615C43.5781 35.583 43.838 35.6472 44.1021 35.649C45.3189 35.649 46.3054 34.2685 46.3054 32.5649C46.3139 31.9046 46.1564 31.2527 45.8471 30.6693Z" fill="#F2F2F2"/>
<path opacity="0.03" d="M42.5536 35.1836C41.9174 35.0617 41.2593 35.1333 40.6641 35.3892C40.3085 35.5464 39.9241 35.6279 39.5353 35.6287C39.1422 35.6286 38.7535 35.5446 38.3953 35.3824C37.9731 35.1976 37.5159 35.1068 37.0552 35.1161C36.5945 35.1255 36.1413 35.2349 35.727 35.4367C35.4912 35.5619 35.2286 35.6278 34.9617 35.6287C33.8803 35.6287 32.9796 34.5374 32.7922 33.1004C33.0079 32.942 33.1918 32.7442 33.334 32.5175C33.9661 31.494 34.9481 30.8387 36.043 30.8387C37.1379 30.8387 38.1154 31.4872 38.752 32.4972C38.9417 32.8043 39.2079 33.0568 39.5245 33.2299C39.8411 33.4029 40.1973 33.4907 40.558 33.4845H40.5873C41.4384 33.4845 42.1901 34.1759 42.5536 35.1836Z" fill="black"/>
<path d="M201.614 141.155L199.864 142.264L200.925 140.335C200.625 140.093 200.253 139.96 199.869 139.955H199.841C199.72 139.956 199.598 139.947 199.478 139.928L198.887 140.303L199.139 139.851C198.72 139.704 198.357 139.428 198.103 139.063L197.044 139.74L197.722 138.523C197.44 138.158 197.081 137.861 196.67 137.653C196.259 137.445 195.807 137.332 195.347 137.321C194.245 137.321 193.263 137.976 192.638 138.999C192.45 139.307 192.183 139.558 191.866 139.729C191.549 139.899 191.192 139.982 190.832 139.969H190.773C189.556 139.969 188.57 141.351 188.57 143.055C188.57 144.759 189.556 146.139 190.773 146.139C191.041 146.138 191.304 146.072 191.541 145.947C191.955 145.745 192.408 145.636 192.869 145.627C193.33 145.618 193.787 145.709 194.209 145.895C194.564 146.053 194.949 146.135 195.338 146.135C195.727 146.135 196.111 146.053 196.467 145.895C196.885 145.713 197.338 145.624 197.794 145.633C198.25 145.642 198.699 145.749 199.11 145.947C199.345 146.068 199.605 146.133 199.869 146.135C201.085 146.135 202.072 144.754 202.072 143.05C202.08 142.39 201.923 141.738 201.614 141.155Z" fill="#F2F2F2"/>
<path opacity="0.03" d="M198.32 145.669C197.684 145.547 197.026 145.619 196.43 145.875C196.075 146.032 195.69 146.113 195.302 146.114C194.909 146.114 194.52 146.03 194.162 145.868C193.74 145.683 193.282 145.592 192.822 145.602C192.361 145.611 191.908 145.72 191.493 145.922C191.258 146.047 190.995 146.113 190.728 146.114C189.647 146.114 188.746 145.023 188.559 143.586C188.774 143.428 188.958 143.23 189.1 143.003C189.732 141.98 190.714 141.324 191.809 141.324C192.904 141.324 193.882 141.973 194.518 142.983C194.708 143.29 194.974 143.542 195.291 143.715C195.608 143.888 195.964 143.976 196.324 143.97H196.354C197.205 143.97 197.957 144.661 198.32 145.669Z" fill="black"/>
<path d="M39.0747 147.029L37.3251 148.139L38.3862 146.209C38.0863 145.968 37.7143 145.834 37.3297 145.83H37.3026C37.1809 145.831 37.0593 145.822 36.9391 145.802L36.3476 146.177L36.6005 145.726C36.1808 145.578 35.8182 145.302 35.5643 144.937L34.5055 145.615L35.1828 144.397C34.9012 144.033 34.5419 143.735 34.131 143.528C33.7202 143.32 33.2682 143.206 32.8079 143.195C31.7063 143.195 30.7243 143.85 30.0989 144.874C29.9107 145.181 29.6443 145.433 29.327 145.603C29.0096 145.773 28.6528 145.856 28.2929 145.843H28.2342C27.0175 145.843 26.0309 147.226 26.0309 148.929C26.0309 150.633 27.0175 152.014 28.2342 152.014C28.5019 152.013 28.7653 151.947 29.0018 151.822C29.4162 151.62 29.8695 151.51 30.3302 151.501C30.791 151.492 31.2482 151.584 31.6701 151.77C32.0255 151.928 32.41 152.009 32.7989 152.009C33.1877 152.009 33.5723 151.928 33.9276 151.77C34.3462 151.588 34.7989 151.498 35.255 151.507C35.7112 151.516 36.16 151.623 36.5711 151.822C36.8057 151.943 37.0656 152.007 37.3297 152.009C38.5464 152.009 39.533 150.629 39.533 148.925C39.5415 148.265 39.3839 147.613 39.0747 147.029Z" fill="#F2F2F2"/>
<path opacity="0.03" d="M35.781 151.544C35.1448 151.422 34.4867 151.493 33.8915 151.749C33.5359 151.906 33.1515 151.988 32.7628 151.989C32.3696 151.989 31.981 151.905 31.6227 151.742C31.2006 151.558 30.7433 151.467 30.2826 151.476C29.8219 151.486 29.3687 151.595 28.9544 151.797C28.7187 151.922 28.456 151.988 28.1891 151.989C27.1078 151.989 26.207 150.897 26.0197 149.46C26.2354 149.302 26.4192 149.104 26.5615 148.878C27.1936 147.854 28.1756 147.199 29.2704 147.199C30.3653 147.199 31.3428 147.847 31.9794 148.857C32.1692 149.164 32.4354 149.417 32.752 149.59C33.0686 149.763 33.4247 149.851 33.7854 149.845H33.8148C34.6658 149.845 35.4176 150.536 35.781 151.544Z" fill="black"/>
<path d="M119.897 7.71133L116.387 9.93459L118.513 6.06421C117.911 5.58336 117.166 5.31703 116.396 5.30731H116.339C116.096 5.31207 115.853 5.29392 115.613 5.25308L114.425 6.00773L114.933 5.08136C114.092 4.78584 113.365 4.23242 112.856 3.49977L110.732 4.85542L112.073 2.41074C110.831 0.917262 109.156 0.00219727 107.312 0.00219727C105.102 0.00219727 103.133 1.31718 101.862 3.36873C101.485 3.98308 100.953 4.48654 100.318 4.82785C99.6836 5.16917 98.9701 5.33616 98.2502 5.31183H98.1328C95.6925 5.31183 93.7149 8.07961 93.7149 11.4958C93.7149 14.9121 95.6925 17.6799 98.1328 17.6799C98.6691 17.6782 99.1968 17.5455 99.6702 17.2935C100.501 16.8901 101.409 16.6719 102.333 16.6539C103.256 16.636 104.172 16.8187 105.018 17.1896C105.733 17.5109 106.507 17.6779 107.29 17.6799C108.074 17.6818 108.849 17.5186 109.565 17.2009C110.404 16.837 111.311 16.6577 112.225 16.6753C113.139 16.6928 114.039 16.9067 114.863 17.3026C115.334 17.5483 115.856 17.6777 116.387 17.6799C118.827 17.6799 120.805 14.9121 120.805 11.4958C120.824 10.1781 120.512 8.87668 119.897 7.71133Z" fill="#F2F2F2"/>
<path opacity="0.03" d="M113.294 16.7605C112.019 16.5191 110.702 16.6622 109.508 17.1717C108.794 17.492 108.019 17.6575 107.236 17.6575C106.453 17.6575 105.679 17.492 104.964 17.1717C104.118 16.7998 103.202 16.6165 102.279 16.6344C101.355 16.6524 100.447 16.8712 99.616 17.2756C99.1415 17.5269 98.6133 17.6595 98.0764 17.662C95.9092 17.662 94.1055 15.4749 93.7308 12.5918C94.1644 12.2767 94.5325 11.8799 94.8144 11.4237C96.0853 9.37443 98.0539 8.05945 100.264 8.05945C102.474 8.05945 104.422 9.34731 105.691 11.3808C106.071 11.9953 106.603 12.5009 107.236 12.8482C107.869 13.1955 108.581 13.3726 109.303 13.3623H109.359C111.073 13.3578 112.567 14.7405 113.294 16.7605Z" fill="black"/>
<path d="M239.539 46.4852L237.79 47.5946L238.851 45.6651C238.551 45.4239 238.179 45.2902 237.794 45.2855H237.767C237.645 45.2867 237.524 45.2777 237.404 45.2584L236.812 45.6334L237.065 45.1815C236.645 45.0344 236.283 44.7584 236.029 44.393L234.97 45.0708L235.647 43.853C235.366 43.4885 235.006 43.1914 234.596 42.9835C234.185 42.7755 233.733 42.662 233.273 42.651C232.171 42.651 231.189 43.3062 230.564 44.3297C230.375 44.637 230.109 44.8887 229.792 45.059C229.474 45.2293 229.117 45.3121 228.758 45.299H228.699C227.482 45.299 226.496 46.6818 226.496 48.3854C226.496 50.089 227.482 51.4695 228.699 51.4695C228.966 51.4686 229.23 51.4027 229.466 51.2774C229.881 51.0756 230.334 50.9663 230.795 50.9574C231.256 50.9484 231.713 51.0399 232.135 51.2255C232.49 51.3836 232.875 51.4652 233.263 51.4652C233.652 51.4652 234.037 51.3836 234.392 51.2255C234.811 51.0438 235.264 50.9543 235.72 50.9633C236.176 50.9723 236.625 51.0794 237.036 51.2774C237.27 51.3989 237.53 51.4632 237.794 51.465C239.011 51.465 239.998 50.0845 239.998 48.3809C240.006 47.7205 239.849 47.0686 239.539 46.4852Z" fill="#F2F2F2"/>
<path opacity="0.03" d="M236.246 50.9996C235.609 50.8776 234.951 50.9493 234.356 51.2052C234 51.3624 233.616 51.4439 233.227 51.4447C232.838 51.443 232.453 51.3591 232.099 51.1984C231.676 51.0136 231.219 50.9227 230.758 50.9321C230.298 50.9415 229.845 51.0508 229.43 51.2526C229.195 51.3779 228.932 51.4438 228.665 51.4447C227.584 51.4447 226.683 50.3534 226.496 48.9164C226.711 48.758 226.895 48.5602 227.037 48.3335C227.669 47.31 228.651 46.6547 229.746 46.6547C230.841 46.6547 231.819 47.3032 232.455 48.3131C232.644 48.6186 232.908 48.87 233.223 49.043C233.537 49.216 233.891 49.3047 234.25 49.3005H234.279C235.13 49.3005 235.882 49.9919 236.246 50.9996Z" fill="black"/>
</g>
<defs>
<clipPath id="clip0">
<rect width="240" height="152" fill="white"/>
</clipPath>
</defs>
</svg>
