<svg width="16" height="16" viewBox="0 0 16 16" fill="#97999B" xmlns="http://www.w3.org/2000/svg">
<path d="M16 4.30769C15.9961 4.15053 15.9323 4.0008 15.8215 3.88923L12.1292 0.196923C12.0733 0.136544 12.0058 0.0880055 11.9307 0.0541804C11.8557 0.0203554 11.7746 0.00193183 11.6923 0H4.92306C4.75985 0 4.60332 0.0648351 4.48791 0.180242C4.37251 0.295649 4.30767 0.452174 4.30767 0.615385V2.46154C4.30767 2.62475 4.37251 2.78127 4.48791 2.89668C4.60332 3.01209 4.75985 3.07692 4.92306 3.07692C5.08627 3.07692 5.24279 3.01209 5.3582 2.89668C5.47361 2.78127 5.53844 2.62475 5.53844 2.46154V1.23077H11.0769V4.30769C11.0769 4.4709 11.1417 4.62743 11.2571 4.74284C11.3726 4.85824 11.5291 4.92308 11.6923 4.92308H14.7692V14.7692H5.53844V12.3077C5.53844 12.1445 5.47361 11.988 5.3582 11.8726C5.24279 11.7571 5.08627 11.6923 4.92306 11.6923C4.75985 11.6923 4.60332 11.7571 4.48791 11.8726C4.37251 11.988 4.30767 12.1445 4.30767 12.3077V15.3846C4.30767 15.5478 4.37251 15.7044 4.48791 15.8198C4.60332 15.9352 4.75985 16 4.92306 16H15.3846C15.5478 16 15.7043 15.9352 15.8197 15.8198C15.9351 15.7044 16 15.5478 16 15.3846V4.30769ZM12.3077 3.69231V2.09846L13.9015 3.69231H12.3077ZM6.00613 11.0769L8.46767 11.6923C8.51673 11.6982 8.56631 11.6982 8.61537 11.6923C8.71025 11.6951 8.8045 11.6759 8.89073 11.6362C8.97697 11.5965 9.05285 11.5374 9.11244 11.4635C9.17203 11.3896 9.21372 11.3029 9.23425 11.2102C9.25477 11.1176 9.25357 11.0214 9.23075 10.9292L8.61537 8.46769C8.58838 8.36069 8.53311 8.26292 8.45537 8.18462L2.9169 2.64615C2.8016 2.53154 2.64563 2.4672 2.48306 2.4672C2.32048 2.4672 2.16451 2.53154 2.04921 2.64615L0.203058 4.49231C0.0884421 4.60761 0.0241089 4.76358 0.0241089 4.92615C0.0241089 5.08873 0.0884421 5.2447 0.203058 5.36L5.74152 10.8985C5.81249 10.9802 5.90377 11.0417 6.00613 11.0769ZM7.5446 9.34769L7.77229 10.2523L6.86767 10.0246L7.5446 9.34769ZM2.46152 3.94462L6.8246 8.30769L5.84613 9.28615L1.48306 4.92308L2.46152 3.94462ZM13.5384 11.0769C13.5384 11.2401 13.4736 11.3967 13.3582 11.5121C13.2428 11.6275 13.0863 11.6923 12.9231 11.6923H11.0769C10.9137 11.6923 10.7572 11.6275 10.6418 11.5121C10.5264 11.3967 10.4615 11.2401 10.4615 11.0769C10.4615 10.9137 10.5264 10.7572 10.6418 10.6418C10.7572 10.5264 10.9137 10.4615 11.0769 10.4615H12.9231C13.0863 10.4615 13.2428 10.5264 13.3582 10.6418C13.4736 10.7572 13.5384 10.9137 13.5384 11.0769ZM13.5384 8.61539C13.5384 8.77859 13.4736 8.93512 13.3582 9.05053C13.2428 9.16594 13.0863 9.23077 12.9231 9.23077H10.4615C10.2983 9.23077 10.1418 9.16594 10.0264 9.05053C9.91097 8.93512 9.84613 8.77859 9.84613 8.61539C9.84613 8.45218 9.91097 8.29565 10.0264 8.18024C10.1418 8.06483 10.2983 8 10.4615 8H12.9231C13.0863 8 13.2428 8.06483 13.3582 8.18024C13.4736 8.29565 13.5384 8.45218 13.5384 8.61539Z" />
</svg>
