<svg width="16" height="16" viewBox="0 0 16 16" fill="none" xmlns="http://www.w3.org/2000/svg">
<path d="M16 12.7914C16 12.961 15.9326 13.1237 15.8127 13.2436C15.6927 13.3636 15.5301 13.431 15.3604 13.431H12.1626C11.993 13.431 11.8303 13.3636 11.7103 13.2436C11.5904 13.1237 11.523 12.961 11.523 12.7914V9.59355C11.523 9.42393 11.5904 9.26125 11.7103 9.14131C11.8303 9.02136 11.993 8.95398 12.1626 8.95398C12.3322 8.95398 12.4949 9.02136 12.6148 9.14131C12.7348 9.26125 12.8022 9.42393 12.8022 9.59355V11.5123C13.6666 10.3597 14.1166 8.94894 14.0791 7.50867C14.0417 6.0684 13.5191 4.68296 12.5959 3.57681C11.6727 2.47067 10.4031 1.70863 8.9928 1.41416C7.58246 1.11968 6.114 1.31003 4.82535 1.95435C3.5367 2.59868 2.50335 3.65924 1.89272 4.96419C1.28209 6.26915 1.12997 7.74206 1.46098 9.14427C1.792 10.5465 2.58677 11.7959 3.71653 12.69C4.84628 13.5841 6.24483 14.0705 7.68559 14.0705C7.85522 14.0705 8.01789 14.1379 8.13784 14.2579C8.25778 14.3778 8.32516 14.5405 8.32516 14.7101C8.32516 14.8797 8.25778 15.0424 8.13784 15.1624C8.01789 15.2823 7.85522 15.3497 7.68559 15.3497C5.96302 15.3521 4.28973 14.7749 2.93493 13.7111C1.58013 12.6473 0.62261 11.1586 0.216426 9.48459C-0.189757 7.81059 -0.0209841 6.04862 0.695591 4.48217C1.41217 2.91573 2.63488 1.63588 4.16699 0.848568C5.69911 0.0612528 7.45154 -0.187754 9.14232 0.141612C10.8331 0.470978 12.3639 1.35957 13.4885 2.6644C14.6131 3.96924 15.266 5.61446 15.3422 7.33534C15.4184 9.05622 14.9134 10.7527 13.9086 12.1518H15.3604C15.5301 12.1518 15.6927 12.2192 15.8127 12.3392C15.9326 12.4591 16 12.6218 16 12.7914Z" fill="#76787B"/>
</svg>
