<svg width="12" height="12" viewBox="0 0 12 12" fill="#76787B" xmlns="http://www.w3.org/2000/svg">
<path d="M11.8931 11.266L7.89028 7.26318C8.61271 6.37986 8.96797 5.25264 8.88258 4.11471C8.79719 2.97679 8.27768 1.91522 7.43151 1.1496C6.58534 0.383983 5.47727 -0.0271 4.3365 0.00138756C3.19573 0.0298751 2.10955 0.495754 1.30265 1.30265C0.495754 2.10955 0.0298751 3.19573 0.00138756 4.3365C-0.0271 5.47727 0.383983 6.58534 1.1496 7.43151C1.91522 8.27768 2.97679 8.79719 4.11471 8.88258C5.25264 8.96797 6.37986 8.61271 7.26318 7.89028L11.266 11.8931C11.351 11.9659 11.4605 12.004 11.5724 11.9997C11.6843 11.9953 11.7905 11.9489 11.8697 11.8697C11.9489 11.7905 11.9953 11.6843 11.9997 11.5724C12.004 11.4605 11.9659 11.351 11.8931 11.266ZM4.46124 8.02371C3.75753 8.02371 3.06962 7.81503 2.48451 7.42407C1.8994 7.03311 1.44336 6.47743 1.17406 5.82728C0.904761 5.17714 0.8343 4.46174 0.971587 3.77155C1.10887 3.08136 1.44774 2.44739 1.94534 1.94979C2.44294 1.45219 3.07692 1.11332 3.76711 0.976035C4.45729 0.838748 5.17269 0.909208 5.82284 1.17851C6.47298 1.4478 7.02867 1.90384 7.41963 2.48896C7.81059 3.07407 8.01926 3.76198 8.01926 4.46569C8.01926 5.40933 7.6444 6.31433 6.97714 6.98159C6.30988 7.64885 5.40489 8.02371 4.46124 8.02371Z" />
</svg>
