<svg width="16" height="16" viewBox="0 0 16 16" fill="#97999B" xmlns="http://www.w3.org/2000/svg">
<path d="M12.8007 15.4647C12.7114 15.4651 12.6234 15.4431 12.5448 15.4007L8.00245 12.8789L3.46006 15.3954C3.37095 15.447 3.2688 15.4717 3.16595 15.4665C3.0631 15.4613 2.96396 15.4264 2.88051 15.3661C2.79705 15.3057 2.73286 15.2225 2.69568 15.1265C2.6585 15.0304 2.64993 14.9257 2.67101 14.8249L3.68398 9.77602L0.159901 6.2466C0.0872079 6.17534 0.0364388 6.08474 0.0135954 5.98554C-0.00924794 5.88633 -0.00321024 5.78266 0.0309939 5.68678C0.0651981 5.59089 0.126139 5.50681 0.206614 5.44446C0.287088 5.38211 0.383731 5.3441 0.485119 5.33493L5.50734 4.83377L7.51196 0.318045C7.55367 0.223438 7.622 0.143003 7.70861 0.0865339C7.79522 0.0300652 7.89639 0 7.99978 0C8.10318 0 8.20434 0.0300652 8.29096 0.0865339C8.37757 0.143003 8.4459 0.223438 8.48761 0.318045L10.4922 4.83377L15.5198 5.33493C15.6201 5.34494 15.7155 5.38317 15.7949 5.4452C15.8744 5.50722 15.9346 5.5905 15.9687 5.68538C16.0027 5.78025 16.0092 5.88283 15.9873 5.98122C15.9654 6.07961 15.9161 6.16978 15.845 6.24127L12.3156 9.77069L13.3339 14.8249C13.3499 14.9032 13.3481 14.9842 13.3286 15.0618C13.309 15.1393 13.2723 15.2115 13.2211 15.2729C13.1699 15.3344 13.1055 15.3835 13.0328 15.4167C12.96 15.4499 12.8807 15.4663 12.8007 15.4647ZM8.00245 11.7327C8.09223 11.7338 8.18025 11.7577 8.25836 11.802L12.049 13.9026L11.2013 9.70671C11.1842 9.62106 11.1883 9.5325 11.2134 9.44883C11.2385 9.36517 11.2838 9.28895 11.3453 9.22688L14.2829 6.28926L10.0817 5.86807C9.98842 5.85827 9.89937 5.82402 9.82354 5.76879C9.74772 5.71356 9.68781 5.63931 9.64987 5.55352L8.00245 1.84817L6.35503 5.54819C6.31709 5.63397 6.25718 5.70823 6.18136 5.76346C6.10553 5.81869 6.01648 5.85294 5.92319 5.86274L1.71135 6.28393L4.64897 9.22155C4.71044 9.28362 4.75571 9.35983 4.78082 9.4435C4.80592 9.52717 4.81007 9.61573 4.79292 9.70138L3.95055 13.9079L7.74121 11.8073C7.82038 11.7603 7.91038 11.7346 8.00245 11.7327Z"/>
</svg>
