<svg width="160" height="48" viewBox="0 0 160 48" fill="none" xmlns="http://www.w3.org/2000/svg">
<rect width="160" height="48" rx="10" fill="#338AF3"/>
<path d="M31.0234 30H28.7344L23.1172 20.8984H23.0547L23.0938 21.4062C23.1667 22.375 23.2031 23.2604 23.2031 24.0625V30H21.5078V18.5781H23.7734L29.375 27.6328H29.4219C29.4115 27.513 29.3906 27.0781 29.3594 26.3281C29.3281 25.5729 29.3125 24.9844 29.3125 24.5625V18.5781H31.0234V30ZM37.6172 30.1562C36.2734 30.1562 35.2214 29.7656 34.4609 28.9844C33.7057 28.1979 33.3281 27.1172 33.3281 25.7422C33.3281 24.3307 33.6797 23.2214 34.3828 22.4141C35.0859 21.6068 36.0521 21.2031 37.2812 21.2031C38.4219 21.2031 39.3229 21.5495 39.9844 22.2422C40.6458 22.9349 40.9766 23.888 40.9766 25.1016V26.0938H35.2188C35.2448 26.9323 35.4714 27.5781 35.8984 28.0312C36.3255 28.4792 36.9271 28.7031 37.7031 28.7031C38.2135 28.7031 38.6875 28.6562 39.125 28.5625C39.5677 28.4635 40.0417 28.3021 40.5469 28.0781V29.5703C40.099 29.7839 39.6458 29.9349 39.1875 30.0234C38.7292 30.112 38.2057 30.1562 37.6172 30.1562ZM37.2812 22.5938C36.6979 22.5938 36.2292 22.7786 35.875 23.1484C35.526 23.5182 35.3177 24.0573 35.25 24.7656H39.1719C39.1615 24.0521 38.9896 23.513 38.6562 23.1484C38.3229 22.7786 37.8646 22.5938 37.2812 22.5938ZM50.1484 30L49.0312 25.9688C48.8958 25.5417 48.651 24.5495 48.2969 22.9922H48.2266C47.9245 24.3984 47.6849 25.3958 47.5078 25.9844L46.3594 30H44.3281L41.9062 21.3594H43.7812L44.8828 25.6172C45.1328 26.6693 45.3099 27.5703 45.4141 28.3203H45.4609C45.513 27.9401 45.5911 27.5052 45.6953 27.0156C45.8047 26.5208 45.8984 26.151 45.9766 25.9062L47.2891 21.3594H49.3047L50.5781 25.9062C50.6562 26.1615 50.7526 26.5521 50.8672 27.0781C50.987 27.6042 51.0573 28.013 51.0781 28.3047H51.1406C51.2188 27.6641 51.401 26.7682 51.6875 25.6172L52.8047 21.3594H54.6484L52.2109 30H50.1484ZM64.4375 30H62.5703V20.1797H59.2109V18.5781H67.7969V20.1797H64.4375V30ZM73.7422 21.2031C74.112 21.2031 74.4167 21.2292 74.6562 21.2812L74.4766 22.9922C74.2161 22.9297 73.9453 22.8984 73.6641 22.8984C72.9297 22.8984 72.3333 23.138 71.875 23.6172C71.4219 24.0964 71.1953 24.7188 71.1953 25.4844V30H69.3594V21.3594H70.7969L71.0391 22.8828H71.1328C71.4193 22.3672 71.7917 21.9583 72.25 21.6562C72.7135 21.3542 73.2109 21.2031 73.7422 21.2031ZM78.1016 30H76.2656V21.3594H78.1016V30ZM76.1562 19.0703C76.1562 18.7422 76.2448 18.4896 76.4219 18.3125C76.6042 18.1354 76.862 18.0469 77.1953 18.0469C77.5182 18.0469 77.7682 18.1354 77.9453 18.3125C78.1276 18.4896 78.2188 18.7422 78.2188 19.0703C78.2188 19.3828 78.1276 19.6302 77.9453 19.8125C77.7682 19.9896 77.5182 20.0781 77.1953 20.0781C76.862 20.0781 76.6042 19.9896 76.4219 19.8125C76.2448 19.6302 76.1562 19.3828 76.1562 19.0703ZM85.1172 30.1562C84.0234 30.1562 83.1745 29.763 82.5703 28.9766H82.4609C82.5339 29.7057 82.5703 30.1484 82.5703 30.3047V33.8438H80.7344V21.3594H82.2188C82.2604 21.5208 82.3464 21.9062 82.4766 22.5156H82.5703C83.1432 21.6406 84.0026 21.2031 85.1484 21.2031C86.2266 21.2031 87.0651 21.5938 87.6641 22.375C88.2682 23.1562 88.5703 24.2526 88.5703 25.6641C88.5703 27.0755 88.263 28.1771 87.6484 28.9688C87.0391 29.7604 86.1953 30.1562 85.1172 30.1562ZM84.6719 22.7031C83.9427 22.7031 83.4089 22.9167 83.0703 23.3438C82.737 23.7708 82.5703 24.4531 82.5703 25.3906V25.6641C82.5703 26.7161 82.737 27.4792 83.0703 27.9531C83.4036 28.4219 83.9479 28.6562 84.7031 28.6562C85.3385 28.6562 85.8281 28.3958 86.1719 27.875C86.5156 27.3542 86.6875 26.612 86.6875 25.6484C86.6875 24.6797 86.5156 23.9479 86.1719 23.4531C85.8333 22.9531 85.3333 22.7031 84.6719 22.7031Z" fill="white"/>
<path d="M139.467 23.4667H132.533V16.5333C132.533 16.3919 132.477 16.2562 132.377 16.1562C132.277 16.0562 132.141 16 132 16C131.859 16 131.723 16.0562 131.623 16.1562C131.523 16.2562 131.467 16.3919 131.467 16.5333V23.4667H124.533C124.392 23.4667 124.256 23.5229 124.156 23.6229C124.056 23.7229 124 23.8586 124 24C124 24.1414 124.056 24.2771 124.156 24.3771C124.256 24.4771 124.392 24.5333 124.533 24.5333H131.467V31.4667C131.467 31.6081 131.523 31.7438 131.623 31.8438C131.723 31.9438 131.859 32 132 32C132.141 32 132.277 31.9438 132.377 31.8438C132.477 31.7438 132.533 31.6081 132.533 31.4667V24.5333H139.467C139.608 24.5333 139.744 24.4771 139.844 24.3771C139.944 24.2771 140 24.1414 140 24C140 23.8586 139.944 23.7229 139.844 23.6229C139.744 23.5229 139.608 23.4667 139.467 23.4667Z" fill="white"/>
</svg>
