<svg width="48" height="48" viewBox="0 0 48 48" fill="none" xmlns="http://www.w3.org/2000/svg">
<path d="M24 48C37.2548 48 47.9999 37.2548 47.9999 24C47.9999 10.7452 37.2548 0 24 0C10.7452 0 0 10.7452 0 24C0 37.2548 10.7452 48 24 48Z" fill="#F1F1F2"/>
<path d="M24 44C35.0457 44 43.9999 35.0457 43.9999 24C43.9999 12.9543 35.0457 4 24 4C12.9543 4 4 12.9543 4 24C4 35.0457 12.9543 44 24 44Z" fill="white"/>
<path d="M22.2608 24C22.2608 24 9.86954 38.1449 9.85782 38.1421C13.477 41.7614 18.4771 44 24 44C35.0456 44 44 35.0456 44 24L22.2608 24Z" fill="#D80027"/>
<path d="M9.85778 9.85751C2.04733 17.668 2.04733 30.3313 9.85779 38.1419C13.0854 34.9143 16.1895 31.8102 24 23.9997L9.85778 9.85751Z" fill="#0052B4"/>
</svg>
