<svg width="48" height="48" viewBox="0 0 48 48" fill="none" xmlns="http://www.w3.org/2000/svg">
<path d="M24 0C37.2548 0 47.9999 10.7452 47.9999 24C47.9999 37.2548 37.2548 48 24 48C10.7452 48 0 37.2548 0 24C0 10.7452 10.7452 0 24 0Z" fill="#F1F1F2"/>
<path d="M24 4C35.0457 4 43.9999 12.9543 43.9999 24C43.9999 35.0457 35.0457 44 24 44C12.9543 44 4 35.0457 4 24C4 12.9543 12.9543 4 24 4Z" fill="white"/>
<path d="M43.9999 23.9999C43.9999 32.5992 38.5725 39.9301 30.9565 42.7559V5.24383C38.5725 8.06976 43.9999 15.4006 43.9999 23.9999Z" fill="#D80027"/>
<path d="M4 23.9999C4 15.4006 9.42757 8.06976 17.0435 5.2439V42.7559C9.42757 39.9301 4 32.5992 4 23.9999Z" fill="#0052B4"/>
</svg>
